<?xml version="1.0" encoding="UTF-8" standalone="no"?><!DOCTYPE svg PUBLIC "-//W3C//DTD SVG 1.1//EN" "http://www.w3.org/Graphics/SVG/1.1/DTD/svg11.dtd"><!-- Generated by graphviz version 2.40.1 (20161225.0304)
 --><!-- Title: G Pages: 1 --><svg xmlns="http://www.w3.org/2000/svg" xmlns:xlink="http://www.w3.org/1999/xlink" width="561pt" height="604pt" viewBox="0.00 0.00 561.03 603.80">
<g id="graph0" class="graph" transform="scale(1 1) rotate(0) translate(4 599.8)">
<title>G</title>
<polygon fill="#ffffff" stroke="transparent" points="-4,4 -4,-599.8 557.0302,-599.8 557.0302,4 -4,4"/>
<g id="clust1" class="cluster">
<title>cluster_tools</title>
<polygon fill="none" stroke="#000000" points="111,-261.4 111,-532.8 293,-532.8 293,-261.4 111,-261.4"/>
<text text-anchor="middle" x="202" y="-516.2" font-family="Times,serif" font-size="14.00" fill="#000000">tools vpc</text>
</g>
<g id="clust2" class="cluster">
<title>cluster_tools</title>
<polygon fill="#d3d3d3" stroke="#d3d3d3" points="207,-423.2 207,-500 285,-500 285,-423.2 207,-423.2"/>
<text text-anchor="middle" x="246" y="-483.4" font-family="Times,serif" font-size="14.00" fill="#000000">tools k8s</text>
</g>
<g id="clust3" class="cluster">
<title>cluster_dev</title>
<polygon fill="none" stroke="#000000" points="21,-8 21,-226.6 165,-226.6 165,-8 21,-8"/>
<text text-anchor="middle" x="93" y="-210" font-family="Times,serif" font-size="14.00" fill="#000000">dev vpc</text>
</g>
<g id="clust4" class="cluster">
<title>cluster_dev</title>
<polygon fill="#d3d3d3" stroke="#d3d3d3" points="29,-16 29,-92.8 157,-92.8 157,-16 29,-16"/>
<text text-anchor="middle" x="93" y="-76.2" font-family="Times,serif" font-size="14.00" fill="#000000">dev k8s</text>
</g>
<g id="clust5" class="cluster">
<title>cluster_qa</title>
<polygon fill="none" stroke="#000000" points="184,-8 184,-226.6 318,-226.6 318,-8 184,-8"/>
<text text-anchor="middle" x="251" y="-210" font-family="Times,serif" font-size="14.00" fill="#000000">qa vpc</text>
</g>
<g id="clust6" class="cluster">
<title>cluster_qa</title>
<polygon fill="#d3d3d3" stroke="#d3d3d3" points="192,-16 192,-92.8 310,-92.8 310,-16 192,-16"/>
<text text-anchor="middle" x="251" y="-76.2" font-family="Times,serif" font-size="14.00" fill="#000000">qa k8s</text>
</g>
<!-- tools_s3 -->
<g id="node1" class="node">
<title>tools_s3</title>
<ellipse fill="#ffc0cb" stroke="#ffc0cb" cx="242" cy="-287.4" rx="43.459" ry="18"/>
<text text-anchor="middle" x="242" y="-283.2" font-family="Times,serif" font-size="14.00" fill="#000000">tools_s3</text>
</g>
<!-- dev_s3 -->
<g id="node4" class="node">
<title>dev_s3</title>
<ellipse fill="#ffc0cb" stroke="#ffc0cb" cx="119" cy="-175.8" rx="38.2857" ry="18"/>
<text text-anchor="middle" x="119" y="-171.6" font-family="Times,serif" font-size="14.00" fill="#000000">dev_s3</text>
</g>
<!-- tools_s3&#45;&gt;dev_s3 -->
<g id="edge4" class="edge">
<title>tools_s3-&gt;dev_s3</title>
<path fill="none" stroke="#ff0000" d="M223.8509,-270.933C202.8375,-251.8672 168.0858,-220.3364 144.3972,-198.8433"/>
<polygon fill="#ff0000" stroke="#ff0000" points="146.5814,-196.0992 136.8236,-191.9717 141.8777,-201.2833 146.5814,-196.0992"/>
<text text-anchor="middle" x="215.6073" y="-238.8" font-family="Times,serif" font-size="14.00" fill="#ff0000">copy</text>
</g>
<!-- qa_s3 -->
<g id="node6" class="node">
<title>qa_s3</title>
<ellipse fill="#ffc0cb" stroke="#ffc0cb" cx="251" cy="-175.8" rx="33.6286" ry="18"/>
<text text-anchor="middle" x="251" y="-171.6" font-family="Times,serif" font-size="14.00" fill="#000000">qa_s3</text>
</g>
<!-- tools_s3&#45;&gt;qa_s3 -->
<g id="edge8" class="edge">
<title>tools_s3-&gt;qa_s3</title>
<path fill="none" stroke="#ff0000" d="M243.4862,-268.9715C244.9147,-251.2577 247.0932,-224.2448 248.7372,-203.8581"/>
<polygon fill="#ff0000" stroke="#ff0000" points="252.2262,-204.1346 249.5415,-193.8856 245.2489,-203.5718 252.2262,-204.1346"/>
<text text-anchor="middle" x="259.6073" y="-238.8" font-family="Times,serif" font-size="14.00" fill="#ff0000">copy</text>
</g>
<!-- prow -->
<g id="node2" class="node">
<title>prow</title>
<ellipse fill="#b2dfee" stroke="#b2dfee" cx="246" cy="-449.2" rx="30.7597" ry="18"/>
<text text-anchor="middle" x="246" y="-445" font-family="Times,serif" font-size="14.00" fill="#000000">prow</text>
</g>
<!-- prow&#45;&gt;tools_s3 -->
<g id="edge1" class="edge">
<title>prow-&gt;tools_s3</title>
<path fill="none" stroke="#000000" d="M245.5489,-430.954C244.8587,-403.0351 243.5344,-349.4651 242.7131,-316.2464"/>
<polygon fill="#000000" stroke="#000000" points="246.2017,-315.738 242.4556,-305.8276 239.2039,-315.911 246.2017,-315.738"/>
<text text-anchor="middle" x="258.7728" y="-356.2" font-family="Times,serif" font-size="14.00" fill="#000000">static</text>
</g>
<!-- ecr -->
<g id="node3" class="node">
<title>ecr</title>
<ellipse fill="#ffff00" stroke="#ffff00" cx="146" cy="-287.4" rx="27" ry="18"/>
<text text-anchor="middle" x="146" y="-283.2" font-family="Times,serif" font-size="14.00" fill="#000000">ecr</text>
</g>
<!-- prow&#45;&gt;ecr -->
<g id="edge2" class="edge">
<title>prow-&gt;ecr</title>
<path fill="none" stroke="#000000" d="M222.1968,-437.3561C201.1374,-425.513 171.501,-405.2144 156.5596,-378.4 145.8968,-359.2641 143.651,-334.3775 143.8517,-315.4676"/>
<polygon fill="#000000" stroke="#000000" points="147.3527,-315.4951 144.192,-305.3827 140.3566,-315.2589 147.3527,-315.4951"/>
<text text-anchor="middle" x="197.2202" y="-356.2" font-family="Times,serif" font-size="14.00" fill="#000000">build and push</text>
</g>
<!-- fe_app_dev -->
<g id="node5" class="node">
<title>fe_app_dev</title>
<ellipse fill="#ffffff" stroke="#ffffff" cx="93" cy="-42" rx="56.1647" ry="18"/>
<text text-anchor="middle" x="93" y="-37.8" font-family="Times,serif" font-size="14.00" fill="#000000">fe_app_dev</text>
</g>
<!-- prow&#45;&gt;fe_app_dev -->
<g id="edge6" class="edge">
<title>prow-&gt;fe_app_dev</title>
<path fill="none" stroke="#0000ff" d="M215.8356,-444.8296C150.1465,-434.4642 0,-405.8057 0,-360.4 0,-360.4 0,-360.4 0,-120.3 0,-92.8819 23.9469,-73.1281 47.5376,-60.3202"/>
<polygon fill="#0000ff" stroke="#0000ff" points="49.1885,-63.4072 56.5109,-55.75 46.0116,-57.1696 49.1885,-63.4072"/>
<text text-anchor="middle" x="19.0526" y="-238.8" font-family="Times,serif" font-size="14.00" fill="#0000ff">deploy</text>
</g>
<!-- fe_app_qa -->
<g id="node7" class="node">
<title>fe_app_qa</title>
<ellipse fill="#ffffff" stroke="#ffffff" cx="251" cy="-42" rx="51.0088" ry="18"/>
<text text-anchor="middle" x="251" y="-37.8" font-family="Times,serif" font-size="14.00" fill="#000000">fe_app_qa</text>
</g>
<!-- prow&#45;&gt;fe_app_qa -->
<g id="edge10" class="edge">
<title>prow-&gt;fe_app_qa</title>
<path fill="none" stroke="#0000ff" d="M269.2527,-437.346C279.0559,-431.3083 289.8326,-423.1304 297,-413.2 311.3505,-393.3175 313,-384.9204 313,-360.4 313,-360.4 313,-360.4 313,-120.3 313,-98.2994 297.7694,-78.8726 282.4058,-64.8728"/>
<polygon fill="#0000ff" stroke="#0000ff" points="284.3147,-61.9 274.4395,-58.0616 279.7657,-67.2204 284.3147,-61.9"/>
<text text-anchor="middle" x="332.0526" y="-238.8" font-family="Times,serif" font-size="14.00" fill="#0000ff">deploy</text>
</g>
<!-- cluster_repo -->
<g id="node9" class="node">
<title>cluster_repo</title>
<ellipse fill="none" stroke="#000000" cx="400" cy="-360.4" rx="58.5271" ry="18"/>
<text text-anchor="middle" x="400" y="-356.2" font-family="Times,serif" font-size="14.00" fill="#000000">cluster_repo</text>
</g>
<!-- prow&#45;&gt;cluster_repo -->
<g id="edge12" class="edge">
<title>prow-&gt;cluster_repo</title>
<path fill="none" stroke="#000000" d="M275.6598,-443.8828C308.8741,-437.4269 360.0218,-425.8253 375,-413.2 382.7452,-406.6715 388.2521,-397.2005 392.0885,-388.0766"/>
<polygon fill="#000000" stroke="#000000" points="395.4553,-389.0617 395.6225,-378.4682 388.8856,-386.6453 395.4553,-389.0617"/>
<text text-anchor="middle" x="470.0151" y="-400.6" font-family="Times,serif" font-size="14.00" fill="#000000">Pull Request (Bump Version)</text>
</g>
<!-- ecr&#45;&gt;fe_app_dev -->
<g id="edge3" class="edge">
<title>ecr-&gt;fe_app_dev</title>
<path fill="none" stroke="#000000" stroke-dasharray="5,2" d="M123.6044,-277.3305C104.6286,-267.4345 78.6945,-250.3572 67,-226.6 42.3073,-176.437 55.4452,-155.5041 67,-100.8 69.2837,-89.9884 73.6894,-78.7453 78.2344,-69.0213"/>
<polygon fill="#000000" stroke="#000000" points="81.4611,-70.3917 82.7524,-59.8759 75.1852,-67.2913 81.4611,-70.3917"/>
</g>
<!-- ecr&#45;&gt;fe_app_qa -->
<g id="edge7" class="edge">
<title>ecr-&gt;fe_app_qa</title>
<path fill="none" stroke="#000000" stroke-dasharray="5,2" d="M153.2417,-270.0449C158.1027,-257.9929 164.4291,-241.4882 169,-226.6 185.8695,-171.6523 172.5032,-151.8073 199,-100.8 205.608,-88.0794 215.5648,-75.8852 225.0028,-65.9323"/>
<polygon fill="#000000" stroke="#000000" points="227.5218,-68.3627 232.055,-58.7866 222.5395,-63.4456 227.5218,-68.3627"/>
</g>
<!-- dev_s3&#45;&gt;fe_app_dev -->
<g id="edge5" class="edge">
<title>dev_s3-&gt;fe_app_dev</title>
<path fill="none" stroke="#000000" stroke-dasharray="5,2" d="M115.4935,-157.7551C111.1321,-135.3108 103.6362,-96.7356 98.5056,-70.3324"/>
<polygon fill="#000000" stroke="#000000" points="101.8773,-69.335 96.534,-60.1863 95.0058,-70.6703 101.8773,-69.335"/>
</g>
<!-- qa_s3&#45;&gt;fe_app_qa -->
<g id="edge9" class="edge">
<title>qa_s3-&gt;fe_app_qa</title>
<path fill="none" stroke="#000000" stroke-dasharray="5,2" d="M251,-157.7551C251,-135.3108 251,-96.7356 251,-70.3324"/>
<polygon fill="#000000" stroke="#000000" points="254.5001,-70.1863 251,-60.1863 247.5001,-70.1863 254.5001,-70.1863"/>
</g>
<!-- code_repo -->
<g id="node8" class="node">
<title>code_repo</title>
<ellipse fill="none" stroke="#000000" cx="246" cy="-577.8" rx="51.0088" ry="18"/>
<text text-anchor="middle" x="246" y="-573.6" font-family="Times,serif" font-size="14.00" fill="#000000">code_repo</text>
</g>
<!-- code_repo&#45;&gt;prow -->
<g id="edge11" class="edge">
<title>code_repo-&gt;prow</title>
<path fill="none" stroke="#000000" d="M246,-559.6475C246,-538.2975 246,-502.601 246,-477.5838"/>
<polygon fill="#000000" stroke="#000000" points="249.5001,-477.2601 246,-467.2601 242.5001,-477.2602 249.5001,-477.2601"/>
</g>
<!-- cluster_repo&#45;&gt;prow -->
<g id="edge13" class="edge">
<title>cluster_repo-&gt;prow</title>
<path fill="none" stroke="#000000" d="M377.3306,-377.1591C357.9063,-391.4585 332.2532,-410.1768 327,-413.2 312.5868,-421.4947 295.9088,-429.2013 281.4463,-435.3384"/>
<polygon fill="#000000" stroke="#000000" points="279.7371,-432.2582 271.8428,-439.3243 282.4206,-438.7235 279.7371,-432.2582"/>
<text text-anchor="middle" x="359.7216" y="-400.6" font-family="Times,serif" font-size="14.00" fill="#000000">CD</text>
</g>
</g>
</svg>